<?xml version="1.0" encoding="UTF-8"?>
<svg version="1.1" xmlns="http://www.w3.org/2000/svg" width="48" height="48">
<path d="M0 0 C15.84 0 31.68 0 48 0 C48 15.84 48 31.68 48 48 C32.16 48 16.32 48 0 48 C0 32.16 0 16.32 0 0 Z " fill="#FFA605" transform="translate(0,0)"/>
<path d="M0 0 C3.89459074 0.21081851 3.89459074 0.21081851 7 -1 C12.76894437 -1.5714002 16.96898206 -1.14438622 22 2 C23.87618016 3.87618016 23.375 6.46131564 23.375 8.953125 C23 11 23 11 20.375 13.5 C19.59125 14.325 18.8075 15.15 18 16 C18.16140905 18.966587 18.9894167 21.16074217 20 24 C20.598125 23.690625 21.19625 23.38125 21.8125 23.0625 C24 22 24 22 27 21 C26.71180351 24.45835793 26.21034962 25.78380733 23.75 28.3125 C20.77431467 30.13848873 19.41408177 30.55363488 16 30 C13.41073669 27.41073669 13.62601957 25.97294721 13.375 22.375 C13.30023438 21.37210938 13.22546875 20.36921875 13.1484375 19.3359375 C13.09945312 18.56507812 13.05046875 17.79421875 13 17 C12.01 16.67 11.02 16.34 10 16 C10 15.01 10 14.02 10 13 C11.98 12.34 13.96 11.68 16 11 C16.04254356 9.00045254 16.04080783 6.99958364 16 5 C14.7995888 3.58036958 14.7995888 3.58036958 11.3125 3.75 C7.20605971 3.80876838 4.50666098 4.76848847 1 7 C0.360625 7.70125 -0.27875 8.4025 -0.9375 9.125 C-3.77257168 11.70233789 -6.26159539 11.71243041 -10 12 C-10.33 13.98 -10.66 15.96 -11 18 C-9.68 18 -8.36 18 -7 18 C-6.67 19.65 -6.34 21.3 -6 23 C-4.35 22.67 -2.7 22.34 -1 22 C-1 21.34 -1 20.68 -1 20 C-0.01 20 0.98 20 2 20 C2.0825 18.80375 2.165 17.6075 2.25 16.375 C2.79438317 11.94103853 4.16825383 9.43241961 7 6 C7.66 6 8.32 6 9 6 C9.09119107 11.0220223 8.77050862 15.8321527 8.125 20.8125 C7.96257813 22.11832031 7.80015625 23.42414062 7.6328125 24.76953125 C7 28 7 28 5 30 C2.375 29.625 2.375 29.625 0 29 C0 28.01 0 27.02 0 26 C-0.66 26.33 -1.32 26.66 -2 27 C-3.99960012 27.039992 -6.00047242 27.04346799 -8 27 C-8.03738281 27.75925781 -8.07476562 28.51851562 -8.11328125 29.30078125 C-8.17902344 30.29464844 -8.24476562 31.28851563 -8.3125 32.3125 C-8.37050781 33.29863281 -8.42851562 34.28476562 -8.48828125 35.30078125 C-9.05267072 38.27782799 -9.54383036 39.27545536 -12 41 C-15.125 41.25 -15.125 41.25 -18 41 C-20.17712465 38.82287535 -19.24614379 33.60376493 -19.25976562 30.58789062 C-19.18086726 23.76014752 -17.88969139 17.56892723 -16 11 C-16.66 10.67 -17.32 10.34 -18 10 C-18 9.34 -18 8.68 -18 8 C-16.35 8.33 -14.7 8.66 -13 9 C-12.938125 8.443125 -12.87625 7.88625 -12.8125 7.3125 C-10.53447134 0.82887996 -6.18754328 -1.32590213 0 0 Z " fill="#FFD697" transform="translate(20,4)"/>
<path d="M0 0 C0.66 0 1.32 0 2 0 C2.09119107 5.0220223 1.77050862 9.8321527 1.125 14.8125 C0.96257813 16.11832031 0.80015625 17.42414062 0.6328125 18.76953125 C0 22 0 22 -2 24 C-3.32 24 -4.64 24 -6 24 C-6.4895011 15.47905488 -5.91822063 6.66370344 0 0 Z " fill="#FFDAA2" transform="translate(27,10)"/>
</svg>
